<svg xmlns:xlink="http://www.w3.org/1999/xlink"  width="24" height="24" viewBox="0 0 24 24" fill="none" xmlns="http://www.w3.org/2000/svg">
                                <path d="M22 16V4C22 2.9 21.1 2 20 2H8C6.9 2 6 2.9 6 4V16C6 17.1 6.9 18 8 18H20C21.1 18 22 17.1 22 16ZM11 12L13.03 14.71L16 11L20 16H8L11 12ZM3 6C2.44772 6 2 6.44772 2 7V20C2 21.1 2.9 22 4 22H17C17.5523 22 18 21.5523 18 21V21C18 20.4477 17.5523 20 17 20H4V7C4 6.44772 3.55228 6 3 6V6Z" fill="currentColor"></path>
                            </svg>